<svg width="17" height="16" viewBox="0 0 17 16" fill="none" xmlns="http://www.w3.org/2000/svg">
<mask id="mask0_510_1832" style="mask-type:alpha" maskUnits="userSpaceOnUse" x="0" y="0" width="17" height="16">
<rect x="0.75" width="16" height="16" fill="#D9D9D9"/>
</mask>
<g mask="url(#mask0_510_1832)">
<path d="M4.08333 7.33333C3.71667 7.33333 3.40278 7.20278 3.14167 6.94167C2.88056 6.68056 2.75 6.36667 2.75 6V3.33333C2.75 2.96667 2.88056 2.65278 3.14167 2.39167C3.40278 2.13056 3.71667 2 4.08333 2H6.75C7.11667 2 7.43056 2.13056 7.69167 2.39167C7.95278 2.65278 8.08333 2.96667 8.08333 3.33333V6C8.08333 6.36667 7.95278 6.68056 7.69167 6.94167C7.43056 7.20278 7.11667 7.33333 6.75 7.33333H4.08333ZM4.08333 14C3.71667 14 3.40278 13.8694 3.14167 13.6083C2.88056 13.3472 2.75 13.0333 2.75 12.6667V10C2.75 9.63333 2.88056 9.31945 3.14167 9.05833C3.40278 8.79722 3.71667 8.66667 4.08333 8.66667H6.75C7.11667 8.66667 7.43056 8.79722 7.69167 9.05833C7.95278 9.31945 8.08333 9.63333 8.08333 10V12.6667C8.08333 13.0333 7.95278 13.3472 7.69167 13.6083C7.43056 13.8694 7.11667 14 6.75 14H4.08333ZM10.75 7.33333C10.3833 7.33333 10.0694 7.20278 9.80833 6.94167C9.54722 6.68056 9.41667 6.36667 9.41667 6V3.33333C9.41667 2.96667 9.54722 2.65278 9.80833 2.39167C10.0694 2.13056 10.3833 2 10.75 2H13.4167C13.7833 2 14.0972 2.13056 14.3583 2.39167C14.6194 2.65278 14.75 2.96667 14.75 3.33333V6C14.75 6.36667 14.6194 6.68056 14.3583 6.94167C14.0972 7.20278 13.7833 7.33333 13.4167 7.33333H10.75ZM10.75 14C10.3833 14 10.0694 13.8694 9.80833 13.6083C9.54722 13.3472 9.41667 13.0333 9.41667 12.6667V10C9.41667 9.63333 9.54722 9.31945 9.80833 9.05833C10.0694 8.79722 10.3833 8.66667 10.75 8.66667H13.4167C13.7833 8.66667 14.0972 8.79722 14.3583 9.05833C14.6194 9.31945 14.75 9.63333 14.75 10V12.6667C14.75 13.0333 14.6194 13.3472 14.3583 13.6083C14.0972 13.8694 13.7833 14 13.4167 14H10.75Z" fill="#191B1E"/>
</g>
</svg>